<svg width="111" height="18" viewBox="0 0 111 18" fill="none" xmlns="http://www.w3.org/2000/svg">
<path d="M17.4182 6.33831L12.0222 5.51709L9.60999 0.396152C9.54411 0.255944 9.43572 0.142442 9.30183 0.0734507C8.96604 -0.100141 8.55799 0.0445188 8.39009 0.396152L5.97791 5.51709L0.581865 6.33831C0.433096 6.36057 0.297079 6.43401 0.192941 6.54529C0.0670438 6.68079 -0.00233122 6.86309 5.98176e-05 7.05213C0.00245086 7.24117 0.0764123 7.42149 0.205692 7.55345L4.10981 11.5394L3.18744 17.1677C3.16581 17.2987 3.17965 17.4333 3.22738 17.5564C3.27511 17.6795 3.35483 17.7862 3.4575 17.8643C3.56016 17.9424 3.68166 17.9887 3.80823 17.9982C3.9348 18.0077 4.06136 17.9798 4.17356 17.9177L9.00004 15.2605L13.8265 17.9177C13.9583 17.9912 14.1113 18.0157 14.258 17.989C14.6277 17.9222 14.8764 17.555 14.8126 17.1677L13.8903 11.5394L17.7944 7.55345C17.9007 7.4444 17.9708 7.30197 17.992 7.14618C18.0494 6.75671 17.7901 6.39618 17.4182 6.33831Z" fill="#FFA723"/>
<path d="M40.5611 6.33831L35.1651 5.51709L32.7529 0.396152C32.687 0.255944 32.5786 0.142442 32.4447 0.0734507C32.1089 -0.100141 31.7009 0.0445188 31.533 0.396152L29.1208 5.51709L23.7247 6.33831C23.576 6.36057 23.44 6.43401 23.3358 6.54529C23.2099 6.68079 23.1406 6.86309 23.1429 7.05213C23.1453 7.24117 23.2193 7.42149 23.3486 7.55345L27.2527 11.5394L26.3303 17.1677C26.3087 17.2987 26.3225 17.4333 26.3703 17.5564C26.418 17.6795 26.4977 17.7862 26.6004 17.8643C26.703 17.9424 26.8245 17.9887 26.9511 17.9982C27.0777 18.0077 27.2042 17.9798 27.3164 17.9177L32.1429 15.2605L36.9694 17.9177C37.1012 17.9912 37.2542 18.0157 37.4008 17.989C37.7706 17.9222 38.0193 17.555 37.9555 17.1677L37.0332 11.5394L40.9373 7.55345C41.0435 7.4444 41.1137 7.30197 41.1349 7.14618C41.1923 6.75671 40.933 6.39618 40.5611 6.33831Z" fill="#FFA723"/>
<path d="M63.7039 6.33831L58.3079 5.51709L55.8957 0.396152C55.8298 0.255944 55.7214 0.142442 55.5875 0.0734507C55.2517 -0.100141 54.8437 0.0445188 54.6758 0.396152L52.2636 5.51709L46.8676 6.33831C46.7188 6.36057 46.5828 6.43401 46.4786 6.54529C46.3527 6.68079 46.2834 6.86309 46.2858 7.05213C46.2882 7.24117 46.3621 7.42149 46.4914 7.55345L50.3955 11.5394L49.4731 17.1677C49.4515 17.2987 49.4654 17.4333 49.5131 17.5564C49.5608 17.6795 49.6405 17.7862 49.7432 17.8643C49.8459 17.9424 49.9674 17.9887 50.0939 17.9982C50.2205 18.0077 50.3471 17.9798 50.4593 17.9177L55.2857 15.2605L60.1122 17.9177C60.244 17.9912 60.397 18.0157 60.5437 17.989C60.9135 17.9222 61.1621 17.555 61.0984 17.1677L60.176 11.5394L64.0801 7.55345C64.1864 7.4444 64.2565 7.30197 64.2778 7.14618C64.3351 6.75671 64.0758 6.39618 63.7039 6.33831Z" fill="#FFA723"/>
<path d="M86.8468 6.33831L81.4508 5.51709L79.0386 0.396152C78.9727 0.255944 78.8643 0.142442 78.7304 0.0734507C78.3946 -0.100141 77.9866 0.0445188 77.8187 0.396152L75.4065 5.51709L70.0105 6.33831C69.8617 6.36057 69.7257 6.43401 69.6215 6.54529C69.4956 6.68079 69.4263 6.86309 69.4286 7.05213C69.431 7.24117 69.505 7.42149 69.6343 7.55345L73.5384 11.5394L72.616 17.1677C72.5944 17.2987 72.6082 17.4333 72.656 17.5564C72.7037 17.6795 72.7834 17.7862 72.8861 17.8643C72.9887 17.9424 73.1103 17.9887 73.2368 17.9982C73.3634 18.0077 73.4899 17.9798 73.6022 17.9177L78.4286 15.2605L83.2551 17.9177C83.3869 17.9912 83.5399 18.0157 83.6865 17.989C84.0563 17.9222 84.305 17.555 84.2412 17.1677L83.3189 11.5394L87.223 7.55345C87.3292 7.4444 87.3994 7.30197 87.4206 7.14618C87.478 6.75671 87.2187 6.39618 86.8468 6.33831Z" fill="#FFA723"/>
<path d="M109.99 6.33831L104.594 5.51709L102.181 0.396152C102.116 0.255944 102.007 0.142442 101.873 0.0734507C101.537 -0.100141 101.129 0.0445188 100.962 0.396152L98.5493 5.51709L93.1533 6.33831C93.0045 6.36057 92.8685 6.43401 92.7644 6.54529C92.6385 6.68079 92.5691 6.86309 92.5715 7.05213C92.5739 7.24117 92.6478 7.42149 92.7771 7.55345L96.6812 11.5394L95.7589 17.1677C95.7372 17.2987 95.7511 17.4333 95.7988 17.5564C95.8465 17.6795 95.9262 17.7862 96.0289 17.8643C96.1316 17.9424 96.2531 17.9887 96.3796 17.9982C96.5062 18.0077 96.6328 17.9798 96.745 17.9177L101.571 15.2605L106.398 17.9177C106.53 17.9912 106.683 18.0157 106.829 17.989C107.199 17.9222 107.448 17.555 107.384 17.1677L106.462 11.5394L110.366 7.55345C110.472 7.4444 110.542 7.30197 110.563 7.14618C110.621 6.75671 110.362 6.39618 109.99 6.33831Z" fill="#FFA723"/>
</svg>
