<svg width="41" height="7" viewBox="0 0 41 7" fill="none" xmlns="http://www.w3.org/2000/svg">
<path d="M36.9624 0.00019011C38.843 0.000190028 40.3549 1.51205 40.3549 3.39267C40.3549 5.27328 38.843 6.78516 36.9624 6.78516C35.0818 6.78516 33.5699 5.27328 33.5699 3.39267C33.5699 1.51205 35.0818 0.000190192 36.9624 0.00019011Z" fill="#787878"/>
<path d="M20.1775 0.00019011C22.0581 0.000190028 23.5699 1.51205 23.5699 3.39267C23.5699 5.27328 22.0581 6.78516 20.1775 6.78516C18.2968 6.78516 16.785 5.27328 16.785 3.39267C16.785 1.51205 18.2968 0.000190192 20.1775 0.00019011Z" fill="#787878"/>
<path d="M3.39248 0.00019011C5.2731 0.000190028 6.78497 1.51205 6.78497 3.39267C6.78497 5.27328 5.2731 6.78516 3.39248 6.78516C1.51187 6.78516 -6.60861e-08 5.27328 -1.4829e-07 3.39267C-2.30495e-07 1.51205 1.51187 0.000190192 3.39248 0.00019011Z" fill="#787878"/>
</svg>
