<svg width="63" height="63" viewBox="0 0 63 63" fill="none" xmlns="http://www.w3.org/2000/svg">
<path d="M61.42 61.3622H1.60256C1.64958 60.8349 1.71845 60.1913 1.81901 59.4617C2.1079 57.3657 2.65342 54.5962 3.67373 51.8472C5.66035 46.4948 9.25327 41.6296 15.9292 41.3056C19.5824 45.7719 25.5004 49.1201 31.4571 49.1201C37.4432 49.1201 43.1234 45.7017 46.7357 41.1996C50.5458 41.3436 53.2927 42.623 55.3143 44.4266C57.4928 46.3701 58.9225 49.0081 59.848 51.7533C60.772 54.4937 61.1654 57.2581 61.3246 59.3544C61.3838 60.1345 61.4101 60.8161 61.42 61.3622Z" stroke="#E90024" stroke-width="3"/>
<path d="M39.742 31.3317C42.0911 27.4933 43.4865 22.9291 43.4865 19.9587C43.4865 14.3193 38.2712 9.44147 31.4454 9.4375L39.742 31.3317ZM39.742 31.3317C38.5782 33.2333 37.227 34.878 35.7813 36.0325M39.742 31.3317L35.7813 36.0325M35.7813 36.0325C34.3368 37.186 32.8758 37.7918 31.4454 37.7918M35.7813 36.0325L31.4454 37.7918M31.4454 37.7918C30.0187 37.7918 28.5599 37.1864 27.1163 36.0324M31.4454 37.7918L27.1163 36.0324M27.1163 36.0324C25.6717 34.8776 24.321 33.2324 23.1573 31.3304M27.1163 36.0324L23.1573 31.3304M23.1573 31.3304C20.8084 27.4911 19.4122 22.9269 19.4122 19.9587M23.1573 31.3304L19.4122 19.9587M19.4122 19.9587C19.4122 14.3145 24.6284 9.43788 31.4446 9.4375L19.4122 19.9587Z" stroke="#E90024" stroke-width="3"/>
<path d="M45.6441 11.9737V13.4683L47.1386 13.4737C48.0004 13.4769 48.7029 13.6826 49.1383 13.9354C49.4248 14.1017 49.5065 14.2246 49.5265 14.2653L49.5631 33.9373H44.8759V33.1179H47.2504H48.7504V31.6179V27.5662V26.0662H47.2504C47.1604 26.0662 47.0834 26.0734 47.024 26.0811C46.2025 26.0665 45.5313 25.8668 45.1085 25.6219C44.8164 25.4528 44.7342 25.3275 44.7145 25.2868V14.4835C44.7334 14.4307 44.7538 14.3664 44.7715 14.2925L44.8129 14.12V13.9425V10.8279C44.8129 11.1507 44.8957 10.1761 44.811 9.4439C44.7092 8.56467 44.3918 7.42596 43.5441 6.30894C41.8252 4.04411 38.2918 2.30736 31.4925 2.30736C24.688 2.30736 21.1196 4.04696 19.3459 6.28377C17.5916 8.49605 17.9399 10.8555 17.9399 10.8279V13.785V14.0739L18.0471 14.3421C18.0662 14.3897 18.0847 14.4319 18.1003 14.4661C18.1033 14.4726 18.1063 14.479 18.1092 14.4853V25.0601C18.0841 25.1031 17.9968 25.2162 17.7316 25.3678C17.2964 25.6166 16.596 25.8182 15.7425 25.8182C14.8892 25.8182 14.1914 25.6166 13.759 25.3687C13.4948 25.2172 13.4084 25.1043 13.3838 25.0615V14.3089C13.4074 14.2667 13.4922 14.1532 13.7579 14.0008C14.1736 13.7622 14.8378 13.5665 15.6542 13.5532C15.7055 13.559 15.7718 13.5643 15.8489 13.5643H17.3489V12.0643V9.41043C17.3489 9.40916 17.3488 9.40725 17.3488 9.40471C17.3476 9.27209 17.3313 7.41687 18.8935 5.57565C20.4557 3.73436 23.8772 1.58643 31.4925 1.58643C39.1121 1.58643 42.5356 3.7345 44.0988 5.57593C45.6617 7.41714 45.6453 9.27225 45.6441 9.40471C45.6441 9.40726 45.6441 9.40916 45.6441 9.41043V11.9737ZM49.5323 14.2798C49.5321 14.2798 49.5314 14.2779 49.5304 14.274C49.532 14.2778 49.5324 14.2798 49.5323 14.2798ZM16.0477 10.58L16.0463 10.5797L16.0477 10.58ZM44.7089 25.2727C44.7091 25.2727 44.7097 25.2744 44.7105 25.2779C44.7092 25.2745 44.7088 25.2727 44.7089 25.2727ZM18.1181 25.0411C18.1183 25.0411 18.1177 25.0433 18.1157 25.0476C18.117 25.0432 18.118 25.041 18.1181 25.0411ZM13.3751 25.0428C13.3753 25.0428 13.3763 25.045 13.3775 25.0495C13.3755 25.0452 13.3749 25.0429 13.3751 25.0428ZM13.3758 14.327C13.3756 14.3269 13.3762 14.3244 13.3783 14.3197C13.3771 14.3246 13.376 14.327 13.3758 14.327ZM15.5408 13.5368L15.5413 13.5369C15.5389 13.5365 15.5366 13.5361 15.5366 13.5361L15.5408 13.5368Z" stroke="#E90024" stroke-width="3"/>
</svg>
